<mxfile host="app.diagrams.net" modified="2024-03-15T00:30:37.294Z" agent="Mozilla/5.0 (Windows NT 10.0; Win64; x64) AppleWebKit/537.36 (KHTML, like Gecko) Chrome/122.0.0.0 Safari/537.36" etag="IUXW0DOQsj7-V9MW5V9E" version="24.0.6" type="google">
  <diagram name="Page-1" id="Sk6EOp8pvkReZEZKQSe2">
    <mxGraphModel grid="1" page="1" gridSize="10" guides="1" tooltips="1" connect="1" arrows="1" fold="1" pageScale="1" pageWidth="1100" pageHeight="850" math="0" shadow="0">
      <root>
        <mxCell id="0" />
        <mxCell id="1" parent="0" />
        <mxCell id="epe75yR5QJeACrKUJqoy-19" style="edgeStyle=orthogonalEdgeStyle;rounded=0;orthogonalLoop=1;jettySize=auto;html=1;exitX=0.5;exitY=1;exitDx=0;exitDy=0;entryX=0.5;entryY=0;entryDx=0;entryDy=0;" edge="1" parent="1" source="epe75yR5QJeACrKUJqoy-5" target="epe75yR5QJeACrKUJqoy-17">
          <mxGeometry relative="1" as="geometry" />
        </mxCell>
        <mxCell id="epe75yR5QJeACrKUJqoy-5" value="" style="ellipse;whiteSpace=wrap;html=1;aspect=fixed;fillColor=#0D0D0D;" vertex="1" parent="1">
          <mxGeometry x="65" y="60" width="40" height="40" as="geometry" />
        </mxCell>
        <mxCell id="epe75yR5QJeACrKUJqoy-21" style="edgeStyle=orthogonalEdgeStyle;rounded=0;orthogonalLoop=1;jettySize=auto;html=1;exitX=1;exitY=0.5;exitDx=0;exitDy=0;entryX=0;entryY=0.5;entryDx=0;entryDy=0;" edge="1" parent="1" source="epe75yR5QJeACrKUJqoy-17" target="epe75yR5QJeACrKUJqoy-20">
          <mxGeometry relative="1" as="geometry" />
        </mxCell>
        <mxCell id="epe75yR5QJeACrKUJqoy-17" value="Landing Page" style="rounded=1;whiteSpace=wrap;html=1;" vertex="1" parent="1">
          <mxGeometry x="20" y="150" width="130" height="60" as="geometry" />
        </mxCell>
        <mxCell id="epe75yR5QJeACrKUJqoy-23" style="edgeStyle=orthogonalEdgeStyle;rounded=0;orthogonalLoop=1;jettySize=auto;html=1;exitX=0.5;exitY=0;exitDx=0;exitDy=0;entryX=0;entryY=0.5;entryDx=0;entryDy=0;" edge="1" parent="1" source="epe75yR5QJeACrKUJqoy-20" target="epe75yR5QJeACrKUJqoy-22">
          <mxGeometry relative="1" as="geometry" />
        </mxCell>
        <mxCell id="epe75yR5QJeACrKUJqoy-30" value="&lt;font style=&quot;font-size: 12px;&quot;&gt;No&lt;/font&gt;" style="edgeLabel;html=1;align=center;verticalAlign=middle;resizable=0;points=[];" vertex="1" connectable="0" parent="epe75yR5QJeACrKUJqoy-23">
          <mxGeometry x="-0.583" y="1" relative="1" as="geometry">
            <mxPoint as="offset" />
          </mxGeometry>
        </mxCell>
        <mxCell id="epe75yR5QJeACrKUJqoy-25" style="edgeStyle=orthogonalEdgeStyle;rounded=0;orthogonalLoop=1;jettySize=auto;html=1;exitX=0.5;exitY=1;exitDx=0;exitDy=0;entryX=0;entryY=0.5;entryDx=0;entryDy=0;" edge="1" parent="1" source="epe75yR5QJeACrKUJqoy-20" target="epe75yR5QJeACrKUJqoy-24">
          <mxGeometry relative="1" as="geometry" />
        </mxCell>
        <mxCell id="epe75yR5QJeACrKUJqoy-31" value="&lt;font style=&quot;font-size: 12px;&quot;&gt;Yes&lt;/font&gt;" style="edgeLabel;html=1;align=center;verticalAlign=middle;resizable=0;points=[];" vertex="1" connectable="0" parent="epe75yR5QJeACrKUJqoy-25">
          <mxGeometry x="-0.5743" relative="1" as="geometry">
            <mxPoint as="offset" />
          </mxGeometry>
        </mxCell>
        <mxCell id="epe75yR5QJeACrKUJqoy-20" value="Have Account?" style="rhombus;whiteSpace=wrap;html=1;" vertex="1" parent="1">
          <mxGeometry x="215" y="150" width="110" height="60" as="geometry" />
        </mxCell>
        <mxCell id="epe75yR5QJeACrKUJqoy-40" style="edgeStyle=orthogonalEdgeStyle;rounded=0;orthogonalLoop=1;jettySize=auto;html=1;exitX=1;exitY=0.5;exitDx=0;exitDy=0;entryX=0;entryY=0.5;entryDx=0;entryDy=0;" edge="1" parent="1" source="epe75yR5QJeACrKUJqoy-22" target="epe75yR5QJeACrKUJqoy-39">
          <mxGeometry relative="1" as="geometry" />
        </mxCell>
        <mxCell id="epe75yR5QJeACrKUJqoy-22" value="Enter name, email and password" style="rounded=1;whiteSpace=wrap;html=1;" vertex="1" parent="1">
          <mxGeometry x="345" y="50" width="130" height="60" as="geometry" />
        </mxCell>
        <mxCell id="epe75yR5QJeACrKUJqoy-34" style="edgeStyle=orthogonalEdgeStyle;rounded=0;orthogonalLoop=1;jettySize=auto;html=1;exitX=0.5;exitY=1;exitDx=0;exitDy=0;entryX=0.5;entryY=0;entryDx=0;entryDy=0;" edge="1" parent="1" source="epe75yR5QJeACrKUJqoy-24" target="epe75yR5QJeACrKUJqoy-32">
          <mxGeometry relative="1" as="geometry" />
        </mxCell>
        <mxCell id="epe75yR5QJeACrKUJqoy-24" value="Enter email and password" style="rounded=1;whiteSpace=wrap;html=1;" vertex="1" parent="1">
          <mxGeometry x="345" y="240" width="130" height="60" as="geometry" />
        </mxCell>
        <mxCell id="epe75yR5QJeACrKUJqoy-33" style="edgeStyle=orthogonalEdgeStyle;rounded=0;orthogonalLoop=1;jettySize=auto;html=1;exitX=0;exitY=0.5;exitDx=0;exitDy=0;entryX=0.5;entryY=1;entryDx=0;entryDy=0;" edge="1" parent="1" source="epe75yR5QJeACrKUJqoy-32" target="epe75yR5QJeACrKUJqoy-17">
          <mxGeometry relative="1" as="geometry" />
        </mxCell>
        <mxCell id="epe75yR5QJeACrKUJqoy-35" value="Invalid Login" style="edgeLabel;html=1;align=center;verticalAlign=middle;resizable=0;points=[];" vertex="1" connectable="0" parent="epe75yR5QJeACrKUJqoy-33">
          <mxGeometry x="-0.4032" relative="1" as="geometry">
            <mxPoint as="offset" />
          </mxGeometry>
        </mxCell>
        <mxCell id="epe75yR5QJeACrKUJqoy-37" style="edgeStyle=orthogonalEdgeStyle;rounded=0;orthogonalLoop=1;jettySize=auto;html=1;exitX=1;exitY=0.5;exitDx=0;exitDy=0;" edge="1" parent="1" source="epe75yR5QJeACrKUJqoy-32" target="epe75yR5QJeACrKUJqoy-36">
          <mxGeometry relative="1" as="geometry" />
        </mxCell>
        <mxCell id="epe75yR5QJeACrKUJqoy-38" value="Valid Login" style="edgeLabel;html=1;align=center;verticalAlign=middle;resizable=0;points=[];" vertex="1" connectable="0" parent="epe75yR5QJeACrKUJqoy-37">
          <mxGeometry x="-0.3831" relative="1" as="geometry">
            <mxPoint as="offset" />
          </mxGeometry>
        </mxCell>
        <mxCell id="epe75yR5QJeACrKUJqoy-32" value="Correct Login?" style="rhombus;whiteSpace=wrap;html=1;" vertex="1" parent="1">
          <mxGeometry x="355" y="350" width="110" height="60" as="geometry" />
        </mxCell>
        <mxCell id="QTg6okvMs5A38UG9BJcd-3" style="edgeStyle=orthogonalEdgeStyle;rounded=0;orthogonalLoop=1;jettySize=auto;html=1;exitX=1;exitY=0.5;exitDx=0;exitDy=0;" edge="1" parent="1" source="epe75yR5QJeACrKUJqoy-36">
          <mxGeometry relative="1" as="geometry">
            <mxPoint x="710" y="270" as="targetPoint" />
          </mxGeometry>
        </mxCell>
        <mxCell id="epe75yR5QJeACrKUJqoy-36" value="User Dashboard" style="rounded=1;whiteSpace=wrap;html=1;" vertex="1" parent="1">
          <mxGeometry x="545" y="240" width="130" height="60" as="geometry" />
        </mxCell>
        <mxCell id="epe75yR5QJeACrKUJqoy-41" style="edgeStyle=orthogonalEdgeStyle;rounded=0;orthogonalLoop=1;jettySize=auto;html=1;exitX=0.5;exitY=1;exitDx=0;exitDy=0;entryX=0.5;entryY=0;entryDx=0;entryDy=0;" edge="1" parent="1" source="epe75yR5QJeACrKUJqoy-39" target="epe75yR5QJeACrKUJqoy-36">
          <mxGeometry relative="1" as="geometry" />
        </mxCell>
        <mxCell id="epe75yR5QJeACrKUJqoy-39" value="Save Account" style="rounded=1;whiteSpace=wrap;html=1;" vertex="1" parent="1">
          <mxGeometry x="545" y="50" width="130" height="60" as="geometry" />
        </mxCell>
        <mxCell id="QTg6okvMs5A38UG9BJcd-5" value="" style="endArrow=none;html=1;rounded=0;strokeWidth=3;" edge="1" parent="1">
          <mxGeometry width="50" height="50" relative="1" as="geometry">
            <mxPoint x="710" y="580" as="sourcePoint" />
            <mxPoint x="710" y="80" as="targetPoint" />
          </mxGeometry>
        </mxCell>
        <mxCell id="QTg6okvMs5A38UG9BJcd-6" value="Message AI chatbot" style="rounded=1;whiteSpace=wrap;html=1;" vertex="1" parent="1">
          <mxGeometry x="760" y="90" width="120" height="60" as="geometry" />
        </mxCell>
        <mxCell id="QTg6okvMs5A38UG9BJcd-7" value="" style="endArrow=classic;html=1;rounded=0;entryX=0;entryY=0.5;entryDx=0;entryDy=0;" edge="1" parent="1" target="QTg6okvMs5A38UG9BJcd-6">
          <mxGeometry width="50" height="50" relative="1" as="geometry">
            <mxPoint x="710" y="120" as="sourcePoint" />
            <mxPoint x="490" y="260" as="targetPoint" />
            <Array as="points" />
          </mxGeometry>
        </mxCell>
        <mxCell id="QTg6okvMs5A38UG9BJcd-8" value="Manage Budget Plan/Savings Goals" style="rounded=1;whiteSpace=wrap;html=1;" vertex="1" parent="1">
          <mxGeometry x="760" y="190" width="120" height="60" as="geometry" />
        </mxCell>
        <mxCell id="QTg6okvMs5A38UG9BJcd-9" value="" style="endArrow=classic;html=1;rounded=0;entryX=0;entryY=0.5;entryDx=0;entryDy=0;" edge="1" parent="1">
          <mxGeometry width="50" height="50" relative="1" as="geometry">
            <mxPoint x="710" y="219.5" as="sourcePoint" />
            <mxPoint x="760" y="219.5" as="targetPoint" />
            <Array as="points" />
          </mxGeometry>
        </mxCell>
        <mxCell id="QTg6okvMs5A38UG9BJcd-10" value="View Bank Information" style="rounded=1;whiteSpace=wrap;html=1;" vertex="1" parent="1">
          <mxGeometry x="760" y="300" width="120" height="60" as="geometry" />
        </mxCell>
        <mxCell id="QTg6okvMs5A38UG9BJcd-11" value="" style="endArrow=classic;html=1;rounded=0;entryX=0;entryY=0.5;entryDx=0;entryDy=0;" edge="1" parent="1">
          <mxGeometry width="50" height="50" relative="1" as="geometry">
            <mxPoint x="710" y="334.5" as="sourcePoint" />
            <mxPoint x="760" y="334.5" as="targetPoint" />
            <Array as="points" />
          </mxGeometry>
        </mxCell>
        <mxCell id="QTg6okvMs5A38UG9BJcd-12" value="" style="endArrow=none;html=1;rounded=0;strokeWidth=3;" edge="1" parent="1">
          <mxGeometry width="50" height="50" relative="1" as="geometry">
            <mxPoint x="935" y="580" as="sourcePoint" />
            <mxPoint x="935" y="80" as="targetPoint" />
          </mxGeometry>
        </mxCell>
        <mxCell id="QTg6okvMs5A38UG9BJcd-13" value="" style="endArrow=classic;html=1;rounded=0;" edge="1" parent="1">
          <mxGeometry width="50" height="50" relative="1" as="geometry">
            <mxPoint x="880" y="119.5" as="sourcePoint" />
            <mxPoint x="935" y="120" as="targetPoint" />
            <Array as="points" />
          </mxGeometry>
        </mxCell>
        <mxCell id="QTg6okvMs5A38UG9BJcd-14" value="" style="endArrow=classic;html=1;rounded=0;" edge="1" parent="1">
          <mxGeometry width="50" height="50" relative="1" as="geometry">
            <mxPoint x="880" y="219.5" as="sourcePoint" />
            <mxPoint x="935" y="220" as="targetPoint" />
            <Array as="points" />
          </mxGeometry>
        </mxCell>
        <mxCell id="QTg6okvMs5A38UG9BJcd-15" value="" style="endArrow=classic;html=1;rounded=0;" edge="1" parent="1">
          <mxGeometry width="50" height="50" relative="1" as="geometry">
            <mxPoint x="880" y="334.5" as="sourcePoint" />
            <mxPoint x="935" y="335" as="targetPoint" />
            <Array as="points" />
          </mxGeometry>
        </mxCell>
        <mxCell id="QTg6okvMs5A38UG9BJcd-16" value="" style="endArrow=classic;html=1;rounded=0;" edge="1" parent="1">
          <mxGeometry width="50" height="50" relative="1" as="geometry">
            <mxPoint x="940" y="240" as="sourcePoint" />
            <mxPoint x="970" y="240" as="targetPoint" />
          </mxGeometry>
        </mxCell>
        <mxCell id="QTg6okvMs5A38UG9BJcd-18" style="edgeStyle=orthogonalEdgeStyle;rounded=0;orthogonalLoop=1;jettySize=auto;html=1;exitX=0.5;exitY=1;exitDx=0;exitDy=0;" edge="1" parent="1" source="QTg6okvMs5A38UG9BJcd-17">
          <mxGeometry relative="1" as="geometry">
            <mxPoint x="1030" y="320" as="targetPoint" />
          </mxGeometry>
        </mxCell>
        <mxCell id="QTg6okvMs5A38UG9BJcd-17" value="Logout from system" style="rounded=1;whiteSpace=wrap;html=1;" vertex="1" parent="1">
          <mxGeometry x="970" y="210" width="120" height="60" as="geometry" />
        </mxCell>
        <mxCell id="QTg6okvMs5A38UG9BJcd-19" value="" style="ellipse;html=1;shape=endState;fillColor=#000000;strokeColor=#ff0000;" vertex="1" parent="1">
          <mxGeometry x="1015" y="320" width="30" height="30" as="geometry" />
        </mxCell>
        <mxCell id="JolZafdlSdpwWmtVycVO-1" value="View About Page" style="rounded=1;whiteSpace=wrap;html=1;" vertex="1" parent="1">
          <mxGeometry x="760" y="395" width="120" height="60" as="geometry" />
        </mxCell>
        <mxCell id="JolZafdlSdpwWmtVycVO-2" value="View Contact Page" style="rounded=1;whiteSpace=wrap;html=1;" vertex="1" parent="1">
          <mxGeometry x="760" y="490" width="120" height="60" as="geometry" />
        </mxCell>
        <mxCell id="JolZafdlSdpwWmtVycVO-3" value="" style="endArrow=classic;html=1;rounded=0;entryX=0;entryY=0.5;entryDx=0;entryDy=0;" edge="1" parent="1">
          <mxGeometry width="50" height="50" relative="1" as="geometry">
            <mxPoint x="710" y="424" as="sourcePoint" />
            <mxPoint x="760" y="424" as="targetPoint" />
            <Array as="points" />
          </mxGeometry>
        </mxCell>
        <mxCell id="JolZafdlSdpwWmtVycVO-4" value="" style="endArrow=classic;html=1;rounded=0;entryX=0;entryY=0.5;entryDx=0;entryDy=0;" edge="1" parent="1">
          <mxGeometry width="50" height="50" relative="1" as="geometry">
            <mxPoint x="710" y="519.5" as="sourcePoint" />
            <mxPoint x="760" y="519.5" as="targetPoint" />
            <Array as="points" />
          </mxGeometry>
        </mxCell>
        <mxCell id="JolZafdlSdpwWmtVycVO-5" value="" style="endArrow=classic;html=1;rounded=0;" edge="1" parent="1">
          <mxGeometry width="50" height="50" relative="1" as="geometry">
            <mxPoint x="880" y="424" as="sourcePoint" />
            <mxPoint x="935" y="424.5" as="targetPoint" />
            <Array as="points" />
          </mxGeometry>
        </mxCell>
        <mxCell id="JolZafdlSdpwWmtVycVO-6" value="" style="endArrow=classic;html=1;rounded=0;" edge="1" parent="1">
          <mxGeometry width="50" height="50" relative="1" as="geometry">
            <mxPoint x="880" y="519.5" as="sourcePoint" />
            <mxPoint x="935" y="520" as="targetPoint" />
            <Array as="points" />
          </mxGeometry>
        </mxCell>
      </root>
    </mxGraphModel>
  </diagram>
</mxfile>
